<svg width="200" height="50" viewBox="0 0 200 50" fill="none" xmlns="http://www.w3.org/2000/svg">
<path d="M67.5059 18.2204L62.0266 27.5503L68.4932 39.0289H55.1713L49.7274 48.8689H84.9713L67.5059 18.2204Z" fill="black"/>
<path d="M23.682 18.2204L29.1612 27.5503L22.6947 39.0289H36.0166L41.4605 48.8689H6.21655L23.682 18.2204Z" fill="black"/>
<path d="M18.1674 1.63113H72.9371L66.3646 13.0113H51.2322V38.991L45.6495 48.8688L39.8495 39.0289L39.8521 13.0113H24.8233L18.1674 1.63113Z" fill="#ED1A3B"/>
<path d="M100.613 28.5247C100.593 28.6435 100.579 28.7633 100.571 28.8835C100.571 29.4939 100.903 29.7993 101.567 29.7996C101.966 29.7888 102.357 29.6791 102.703 29.4804L103.183 32.0905C102.318 32.544 101.35 32.7637 100.374 32.7278C99.4155 32.779 98.4706 32.4821 97.7135 31.8918C97.3831 31.6035 97.1225 31.2437 96.9517 30.8398C96.7808 30.4359 96.7041 29.9984 96.7273 29.5605C96.7225 29.2193 96.7556 28.8786 96.826 28.5447L97.5426 24.9779H95.9496L96.5265 22.1499H98.1021L98.6594 19.34H102.445L101.887 22.1499H104.338L103.779 24.9779H101.329L100.613 28.5247Z" fill="black"/>
<path d="M116.172 28.0859H108.242C108.375 29.2548 109.192 29.8393 110.693 29.8393C111.166 29.8399 111.636 29.7662 112.086 29.6208C112.529 29.4792 112.941 29.2559 113.302 28.9626L114.875 31.3333C113.534 32.2878 111.919 32.7776 110.274 32.7279C109.235 32.7492 108.205 32.5423 107.256 32.1219C106.433 31.7574 105.734 31.162 105.244 30.4081C104.76 29.6283 104.515 28.7246 104.537 27.8074C104.521 26.6867 104.806 25.5823 105.363 24.6092C105.91 23.6641 106.711 22.8914 107.675 22.3789C108.721 21.8264 109.889 21.5484 111.071 21.5709C112.043 21.549 113.007 21.7502 113.889 22.159C114.658 22.5186 115.303 23.0972 115.744 23.8222C116.185 24.5769 116.408 25.4389 116.39 26.3128C116.381 26.9099 116.308 27.5043 116.172 28.0859ZM109.357 24.7496C108.93 25.0972 108.618 25.5657 108.461 26.0937H112.902C112.922 25.8434 112.884 25.5919 112.791 25.3588C112.697 25.1257 112.552 24.9172 112.365 24.7496C111.951 24.4096 111.425 24.2356 110.89 24.2615C110.338 24.2427 109.796 24.4151 109.357 24.7496Z" fill="black"/>
<path d="M119.927 32.1213C119.111 31.7513 118.419 31.1526 117.935 30.3975C117.453 29.6208 117.208 28.721 117.228 27.8074C117.208 26.6908 117.502 25.591 118.076 24.6331C118.65 23.6751 119.481 22.8975 120.475 22.3887C121.539 21.834 122.723 21.553 123.923 21.5711C125.027 21.5428 126.119 21.8074 127.089 22.338C127.958 22.8267 128.644 23.5861 129.042 24.5006L125.814 26.0343C125.668 25.601 125.385 25.2268 125.008 24.9681C124.631 24.7093 124.18 24.5799 123.723 24.5994C123.363 24.59 123.006 24.6603 122.677 24.8049C122.348 24.9496 122.055 25.1653 121.819 25.4364C121.307 26.0333 121.04 26.8021 121.072 27.588C121.058 27.8657 121.099 28.1434 121.193 28.4052C121.287 28.6669 121.432 28.9075 121.619 29.113C121.827 29.3104 122.074 29.4626 122.343 29.5602C122.612 29.6578 122.899 29.6986 123.185 29.6802C123.652 29.69 124.113 29.5728 124.519 29.3411C124.94 29.0769 125.284 28.706 125.515 28.2659L128.284 29.939C127.766 30.8162 127.009 31.5281 126.102 31.9918C125.12 32.4936 124.029 32.7464 122.926 32.7278C121.894 32.751 120.87 32.5438 119.927 32.1213Z" fill="black"/>
<path d="M142.33 21.7512L140.177 32.5491H136.591L136.811 31.5333C135.963 32.3238 134.84 32.7524 133.682 32.7279C132.896 32.7311 132.123 32.5288 131.44 32.141C130.733 31.7394 130.151 31.1497 129.758 30.4372C129.317 29.6324 129.097 28.725 129.12 27.8074C129.104 26.6983 129.375 25.604 129.906 24.6302C130.406 23.7071 131.142 22.9335 132.039 22.3887C132.923 21.847 133.94 21.5637 134.976 21.5711C135.608 21.5069 136.246 21.6092 136.827 21.8679C137.407 22.1266 137.91 22.5326 138.285 23.0457L138.544 21.7512H142.33ZM136.85 28.8429C137.348 28.2315 137.603 27.4587 137.568 26.6714C137.583 26.3951 137.542 26.1186 137.448 25.8584C137.354 25.5982 137.208 25.3595 137.02 25.1564C136.821 24.9653 136.585 24.8172 136.326 24.7212C136.068 24.6252 135.792 24.5833 135.516 24.5981C135.164 24.5885 134.814 24.6589 134.493 24.8038C134.172 24.9488 133.888 25.1647 133.662 25.4351C133.163 26.0537 132.908 26.8335 132.945 27.6273C132.921 27.9028 132.957 28.1802 133.052 28.4401C133.146 28.6999 133.297 28.9359 133.492 29.1314C133.688 29.327 133.924 29.4773 134.183 29.5719C134.443 29.6665 134.721 29.703 134.996 29.6789C135.348 29.6891 135.698 29.6192 136.019 29.4744C136.341 29.3295 136.625 29.1136 136.85 28.8429Z" fill="black"/>
<path d="M156.118 21.7512L153.966 32.5491H150.38L150.6 31.4333C150.15 31.8624 149.617 32.1948 149.034 32.4097C148.464 32.6207 147.86 32.7284 147.252 32.7278C146.224 32.7818 145.216 32.4399 144.433 31.7724C144.073 31.4192 143.793 30.9926 143.613 30.5215C143.432 30.0505 143.355 29.546 143.387 29.0426C143.388 28.594 143.434 28.1466 143.526 27.7074L144.721 21.7512H148.506L147.392 27.3486C147.339 27.5908 147.312 27.8379 147.311 28.0859C147.286 28.2812 147.306 28.4797 147.371 28.6656C147.436 28.8515 147.543 29.0197 147.684 29.1571C147.826 29.2944 147.997 29.397 148.184 29.4567C148.372 29.5165 148.571 29.5318 148.765 29.5014C149.062 29.5116 149.357 29.4631 149.634 29.3588C149.912 29.2544 150.166 29.0963 150.381 28.8934C150.852 28.3963 151.157 27.7666 151.257 27.0898L152.332 21.7512H156.118Z" fill="black"/>
<path d="M170.82 17.7665L167.87 32.5491H164.285L164.504 31.4936C164.09 31.896 163.6 32.2123 163.063 32.4241C162.526 32.636 161.952 32.7392 161.375 32.7278C160.59 32.7313 159.818 32.529 159.136 32.141C158.428 31.7396 157.845 31.1498 157.452 30.4372C157.01 29.6324 156.79 28.725 156.813 27.8074C156.799 26.6984 157.07 25.6045 157.599 24.6302C158.101 23.7056 158.841 22.9318 159.742 22.3887C160.63 21.8478 161.651 21.5647 162.691 21.5711C163.316 21.5105 163.946 21.6105 164.521 21.8617C165.097 22.1129 165.598 22.5069 165.978 23.0063L167.034 17.7665H170.82ZM164.544 28.8429C165.041 28.2315 165.297 27.4587 165.262 26.6714C165.276 26.3959 165.236 26.1203 165.144 25.8603C165.052 25.6003 164.909 25.3611 164.724 25.1564C164.527 24.9649 164.293 24.8164 164.036 24.7203C163.778 24.6242 163.504 24.5826 163.23 24.5981C162.877 24.5885 162.528 24.6589 162.206 24.8038C161.885 24.9488 161.601 25.1646 161.375 25.4351C160.878 26.0545 160.624 26.8339 160.66 27.6273C160.645 27.9013 160.684 28.1756 160.776 28.434C160.869 28.6924 161.012 28.9296 161.198 29.1315C161.396 29.3203 161.631 29.4663 161.888 29.5605C162.145 29.6547 162.419 29.695 162.692 29.6789C163.044 29.689 163.394 29.6189 163.714 29.4741C164.035 29.3293 164.319 29.1134 164.544 28.8429Z" fill="black"/>
<path d="M182.295 28.0859H174.365C174.499 29.2548 175.316 29.8393 176.816 29.8393C177.289 29.8399 177.759 29.7662 178.21 29.6208C178.652 29.4792 179.065 29.2559 179.425 28.9626L180.998 31.3333C179.658 32.2878 178.042 32.7776 176.397 32.7279C175.359 32.7492 174.329 32.5423 173.379 32.1219C172.557 31.7574 171.858 31.162 171.367 30.4081C170.884 29.6283 170.638 28.7246 170.66 27.8074C170.645 26.6867 170.93 25.5823 171.486 24.6092C172.033 23.6641 172.834 22.8914 173.799 22.3789C174.844 21.8264 176.012 21.5484 177.194 21.5709C178.167 21.549 179.131 21.7502 180.013 22.159C180.781 22.5186 181.426 23.0972 181.867 23.8222C182.308 24.5769 182.532 25.4389 182.513 26.3128C182.504 26.9099 182.431 27.5043 182.295 28.0859ZM175.48 24.7496C175.053 25.0972 174.741 25.5657 174.585 26.0937H179.026C179.046 25.8434 179.007 25.5919 178.914 25.3588C178.821 25.1257 178.675 24.9172 178.488 24.7496C178.074 24.4096 177.549 24.2356 177.014 24.2615C176.461 24.2427 175.92 24.4151 175.48 24.7496Z" fill="black"/>
<path d="M190.841 27.1895L193.77 32.5491H189.747L188.273 29.7196L185.661 32.5491H181.378L186.778 27.0107L183.928 21.7512H187.892L189.327 24.5006L191.897 21.7512H196.061L190.841 27.1895Z" fill="black"/>
</svg>
